<?xml version="1.0" encoding="UTF-8" standalone="no"?>
<!-- Created with Inkscape (http://www.inkscape.org/) -->

<svg
   xmlns:dc="http://purl.org/dc/elements/1.1/"
   xmlns:cc="http://creativecommons.org/ns#"
   xmlns:rdf="http://www.w3.org/1999/02/22-rdf-syntax-ns#"
   xmlns:svg="http://www.w3.org/2000/svg"
   xmlns="http://www.w3.org/2000/svg"
   xmlns:sodipodi="http://sodipodi.sourceforge.net/DTD/sodipodi-0.dtd"
   xmlns:inkscape="http://www.inkscape.org/namespaces/inkscape"
   width="512"
   height="512"
   viewBox="0 0 512 512.00001"
   id="svg2"
   version="1.1"
   inkscape:version="0.91 r13725"
   sodipodi:docname="nekokoro.svg"
   inkscape:export-filename="D:\Users\ukatama\OneDrive\Documents\nekokoro\nekokoro230.png"
   inkscape:export-xdpi="40.429688"
   inkscape:export-ydpi="40.429688">
  <defs
     id="defs4" />
  <sodipodi:namedview
     id="base"
     pagecolor="#ffffff"
     bordercolor="#666666"
     borderopacity="1.0"
     inkscape:pageopacity="0"
     inkscape:pageshadow="2"
     inkscape:zoom="1.4"
     inkscape:cx="217.19931"
     inkscape:cy="265.96293"
     inkscape:document-units="px"
     inkscape:current-layer="layer1"
     showgrid="false"
     units="px"
     fit-margin-top="0"
     fit-margin-left="0"
     fit-margin-right="0"
     fit-margin-bottom="0"
     inkscape:window-width="1920"
     inkscape:window-height="1017"
     inkscape:window-x="1912"
     inkscape:window-y="-8"
     inkscape:window-maximized="1"
     borderlayer="false"
     showguides="false" />
  <metadata
     id="metadata7">
    <rdf:RDF>
      <cc:Work
         rdf:about="">
        <dc:format>image/svg+xml</dc:format>
        <dc:type
           rdf:resource="http://purl.org/dc/dcmitype/StillImage" />
        <dc:title />
      </cc:Work>
    </rdf:RDF>
  </metadata>
  <g
     inkscape:label="レイヤー 1"
     inkscape:groupmode="layer"
     id="layer1"
     transform="translate(-100,159.63779)"
     style="display:inline">
    <path
       style="display:inline;fill:#000000;fill-opacity:1;stroke:none;stroke-width:1.29999995;stroke-miterlimit:4;stroke-dasharray:none;stroke-opacity:1"
       d="m 432.87109,-117.61133 c -17.25341,2.62274 -27.03068,19.17602 -36.22265,32.191408 -6.29918,10.575855 -9.08113,22.877056 -15.77149,33.242188 -23.5436,3.446847 -47.24331,6.197947 -70.8164,9.644531 -21.86278,-19.519971 -39.69008,-46.082182 -68.55469,-55.957031 -9.59264,-2.884746 -18.0492,4.74472 -22.66797,12.353515 -10.95902,14.082198 -16.37734,32.087541 -15.00702,49.873526 -1.67398,62.330718 -1.62529,124.814326 -1.81329,187.083503 -0.78793,5.3234 -5.95798,1.27568 -8.34766,-0.44922 -20.76306,-13.05641 -38.11329,-31.05534 -59.91211,-42.48437 -8.70125,-6.64238 -20.94803,0.0351 -24.01367,9.42578 -3.09641,7.1901 1.42213,14.4637 6.45916,19.39866 13.11725,14.5845 29.97361,25.04563 44.83772,37.67751 13.53069,10.36663 27.46044,20.36992 40.63086,31.11133 -1.18594,12.37656 1.42261,26.82376 12.57276,34.09472 32.89468,29.03731 69.80703,52.99868 104.47997,79.7627 10.20426,6.77498 22.76871,3.9662 34.03595,2.67303 48.92687,-5.87382 97.09199,-16.64954 145.73948,-24.19918 26.88474,-4.72204 54.20206,-8.43789 80.36063,-16.22633 11.6981,-6.65139 15.78724,-21.27188 14.06125,-33.91926 0.92187,-82.80309 1.97715,-165.701432 -0.47075,-248.45325812 C 588.43949,-10.986514 576.2086,-12.631113 567.86058,-17.765326 542.94537,-29.172159 517.67191,-39.77242 492.58398,-50.791016 484.62041,-72.026038 473.5003,-93.016289 454.9502,-106.8481 c -6.1313,-5.47575 -13.43736,-10.97134 -22.07911,-10.76323 z m 0.34571,12.23828 c 16.034,5.30961 27.02768,19.419167 36.39258,32.472659 5.69481,9.895091 7.42803,22.070619 14.12695,31.259766 32.06308,15.000022 65.83171,26.637854 96.4375,44.3925781 4.55686,6.5464039 0.003,14.6737219 1.71289,21.9433589 -0.1003,79.575618 0.20057,159.280588 -0.15039,238.775388 -5.49375,7.85624 -14.74622,12.56161 -24.31176,12.41175 -71.52548,12.36854 -142.78651,26.5116 -214.74098,36.00036 -9.22747,0.88732 -19.01423,-2.05265 -25.38243,-9.15275 -33.98549,-25.31949 -69.42847,-48.77259 -100.84413,-77.24568 -6.33269,-10.63556 -1.29955,-23.08247 -2.74271,-34.74207 0.85151,-79.18415 0.14213,-158.407116 1.94584,-237.566529 2.0209,-14.228246 6.92093,-29.753077 18.63281,-39.003906 10.9931,-2.884657 19.49151,7.238855 27.74928,12.739859 14.37342,11.190127 24.75844,26.357413 37.77611,38.871469 6.93894,5.366302 16.20535,4.644503 24.08637,2.253109 21.23478,-3.174749 42.51907,-6.047053 63.86675,-8.157406 11.94302,-18.988461 16.50108,-42.863087 33.80469,-58.115234 3.05951,-3.343842 6.70804,-7.255102 11.64063,-7.136722 z M 126.99805,116.22852 c 17.1721,6.49105 29.10909,21.36744 44.54429,30.80123 9.8731,7.22355 19.86891,14.28521 30.08657,21.01517 0.0131,7.57874 0.0694,15.1578 -0.0137,22.73633 -26.13423,-19.52136 -53.90853,-37.32078 -77.02734,-60.50977 -3.69405,-3.50681 -6.7072,-11.60397 -0.11133,-13.6914 0.8072,-0.27565 1.66774,-0.42392 2.52149,-0.35156 z"
       id="path4731"
       inkscape:connector-curvature="0" />
    <path
       style="fill:#ffffff;fill-opacity:1;stroke:none;stroke-width:2.29999995;stroke-miterlimit:4;stroke-dasharray:none;stroke-opacity:1"
       d="m 230.24468,469.83505 c -3.58842,-1.04 -4.31087,-1.53513 -34.43382,-23.59863 -56.90236,-41.67803 -79.16119,-59.62461 -80.63861,-65.01632 -0.94126,-3.43505 -0.5114,-187.39643 0.55277,-236.56421 0.86467,-39.94959 1.19687,-42.5116 7.12421,-54.943784 1.61805,-3.393742 4.80442,-8.329641 7.08082,-10.968665 3.64049,-4.220401 4.62088,-4.798224 8.14117,-4.798224 4.98645,0 9.45495,2.250842 19.09752,9.619691 10.05523,7.684199 13.05677,10.587693 28.45571,27.526232 8.01959,8.82141 14.68461,15.22231 17.17141,16.49099 5.15749,2.63115 10.87803,2.3592 39.70731,-1.88769 11.66726,-1.71873 26.70187,-3.68377 33.41023,-4.36677 14.37535,-1.4636 11.88031,1.09419 23.63295,-24.22726 4.27481,-9.210207 9.48311,-19.323164 11.57402,-22.473234 4.82143,-7.263796 16.3434,-18.726501 19.66005,-19.558928 3.90431,-0.97992 14.32529,4.978525 22.23426,12.71297 11.12506,10.879581 16.60558,19.027595 21.82775,32.451812 7.38557,18.98549 4.33988,16.59531 41.44513,32.52519 33.29739,14.2951 60.17391,27.15795 63.32059,30.30462 1.70263,1.70264 1.7961,8.5145 1.7961,130.89062 l 0,129.09452 -3.78807,3.68528 c -4.10096,3.98965 -11.47626,7.77868 -15.21031,7.81423 -1.28198,0.0122 -29.23795,4.81408 -62.12439,10.67084 -96.487,17.18341 -150.92936,25.8134 -161.66019,25.62573 -2.86522,-0.0501 -6.6347,-0.50416 -8.37661,-1.00901 z"
       id="path5384"
       inkscape:connector-curvature="0"
       transform="translate(100,-159.63779)" />
    <path
       style="fill:#ffffff;fill-opacity:1;stroke:none;stroke-width:2.29999995;stroke-miterlimit:4;stroke-dasharray:none;stroke-opacity:1"
       d="m 91.990443,342.89202 c -48.237766,-35.56049 -66.41134,-50.53108 -69.664451,-57.3865 -2.047615,-4.31503 -1.065027,-7.88285 2.422099,-8.79476 3.18529,-0.83297 12.405683,4.25372 23.300716,12.8545 10.430405,8.234 39.723938,29.50242 48.216634,35.00745 l 5.285149,3.42587 0.0182,10.85914 c 0.01,5.97253 -0.0955,10.83152 -0.23438,10.79776 -0.1389,-0.0337 -4.34366,-3.07731 -9.343915,-6.76346 z"
       id="path5388"
       inkscape:connector-curvature="0"
       transform="translate(100,-159.63779)" />
  </g>
  <g
     inkscape:groupmode="layer"
     id="layer2"
     inkscape:label="レイヤー 2"
     transform="translate(-100,159.63779)"
     style="display:inline">
    <g
       style="display:inline"
       id="g4225">
      <g
         id="g4236"
         transform="matrix(1.3516317,0,0,1.3516317,-32.30603,-153.90173)">
        <path
           style="fill:#ff0000;fill-opacity:1;stroke:none"
           d="m 206.8868,247.36981 c -1.39801,-1.2375 -3.33666,-3.82292 -4.30811,-5.74538 -2.20678,-4.36713 -5.46113,-19.01541 -5.46113,-24.5813 0,-10.35543 6.15811,-28.70395 10.04794,-29.93854 1.07363,-0.34075 1.95206,-1.03923 1.95206,-1.55217 0,-2.14045 5.40735,-0.80299 8.08605,2.00002 11.62118,12.16045 11.51666,47.38295 -0.17786,59.93554 -2.58398,2.77358 -6.92934,2.72294 -10.13895,-0.11817 z"
           id="path3363"
           inkscape:connector-curvature="0"
           sodipodi:nodetypes="ssssssss" />
      </g>
    </g>
    <path
       style="display:inline;fill:#000000;fill-opacity:1;stroke:none;stroke-width:0.96180046;stroke-miterlimit:4;stroke-dasharray:none;stroke-opacity:1"
       d="m 362.08324,280.99146 c -0.32242,-0.32795 -2.51422,-0.90947 -4.87064,-1.29228 -11.07257,-1.79874 -17.76719,-12.36077 -17.71096,-27.94232 0.0527,-14.59031 3.6866,-21.53727 16.90914,-32.32491 3.23059,-2.6357 14.25874,-4.02931 20.06689,-2.53584 8.20838,2.11064 12.20513,5.47502 16.04852,13.50925 7.97958,16.68051 -0.0161,39.14208 -16.7563,47.0724 -5.58631,2.64639 -12.735,4.48163 -13.68665,3.5137 z"
       id="path4798"
       inkscape:connector-curvature="0" />
    <path
       style="display:inline;fill:#000000;fill-opacity:1;stroke:none;stroke-width:0.96180046;stroke-miterlimit:4;stroke-dasharray:none;stroke-opacity:1"
       d="m 443.54054,200.88942 c -0.32243,-0.32794 -2.51423,-0.90947 -4.87065,-1.29228 -11.07256,-1.79874 -17.7672,-12.36076 -17.71096,-27.94232 0.0527,-14.59031 3.68661,-21.53727 16.90915,-32.32491 3.23059,-2.63569 14.25874,-4.02931 20.06689,-2.53583 8.20836,2.11064 12.20513,5.47501 16.04852,13.50924 7.97957,16.68052 -0.0161,39.14208 -16.7563,47.0724 -5.58632,2.64639 -12.73502,4.48163 -13.68665,3.5137 z"
       id="path4796"
       inkscape:connector-curvature="0" />
    <path
       style="display:inline;fill:#000000;fill-opacity:1;stroke:none;stroke-width:0.96180046;stroke-miterlimit:4;stroke-dasharray:none;stroke-opacity:1"
       d="m 525.5726,128.25708 c -0.32243,-0.32795 -2.51423,-0.90947 -4.87065,-1.29228 -11.07256,-1.79874 -17.7672,-12.36077 -17.71095,-27.942325 0.0527,-14.590306 3.6866,-21.53726 16.90914,-32.324903 3.23059,-2.635695 14.25873,-4.029309 20.06689,-2.535837 8.20836,2.110641 12.20513,5.475014 16.04852,13.509248 7.97957,16.680514 -0.0161,39.142077 -16.7563,47.072397 -5.58632,2.64638 -12.73502,4.48163 -13.68665,3.5137 z"
       id="path4794"
       inkscape:connector-curvature="0" />
    <path
       style="display:inline;fill:#000000;fill-opacity:1;stroke:none;stroke-width:0.89719468;stroke-miterlimit:4;stroke-dasharray:none;stroke-opacity:1"
       d="m 458.1547,18.549443 c -5.3459,0.122743 -4.72491,5.431579 -4.9725,8.625771 -1.19446,4.132629 -13.17156,10.499894 -17.75263,7.188879 -4.93678,-0.708253 -4.71461,-8.41844 -10.15144,-6.391932 -3.45956,2.976797 -0.86021,8.478017 -5.77848,10.935663 -5.66949,5.787895 -22.50025,7.63568 -22.3453,-0.258449 -2.59131,-4.827203 -9.95883,-0.609207 -9.65209,3.57001 -0.0505,9.71987 19.40677,12.753167 30.20433,10.260546 8.0498,-4.077384 8.56749,-5.796039 13.39846,-9.634962 6.55073,2.667503 18.47047,2.701753 24.42889,-2.244887 5.75325,-4.874838 10.49936,-13.854123 6.68375,-20.44251 -0.93111,-1.093649 -2.49976,-1.720436 -4.06299,-1.608129 z"
       id="path4792"
       inkscape:connector-curvature="0"
       sodipodi:nodetypes="cccccccccccc" />
    <path
       style="display:inline;fill:#000000;fill-opacity:1;stroke:none;stroke-width:0.96180046;stroke-miterlimit:4;stroke-dasharray:none;stroke-opacity:1"
       d="m 407.67009,3.7603329 c -4.74713,0.3213551 -12.88269,2.8777629 -11.48437,9.0722661 4.03606,8.665295 20.51684,5.622914 20.20312,-4.1875001 -0.84676,-3.7946909 -5.30588,-5.1057801 -8.71875,-4.884766 z"
       id="path4790"
       inkscape:connector-curvature="0" />
    <path
       style="display:inline;fill:#000000;fill-opacity:1;stroke:none;stroke-width:0.96180046;stroke-miterlimit:4;stroke-dasharray:none;stroke-opacity:1"
       d="m 336.48862,-12.061708 c -8.09119,-0.262934 -15.22681,10.2872602 -9.26758,16.947266 3.56868,5.83704 12.07568,7.191942 16.96875,2.2304684 6.24839,-4.3289554 4.91423,-14.2869039 -1.68554,-17.5546874 -1.80661,-1.077264 -3.90994,-1.659588 -6.01563,-1.623047 z"
       id="path4788"
       inkscape:connector-curvature="0" />
    <path
       style="display:inline;fill:#000000;fill-opacity:1;stroke:none;stroke-width:0.8907429;stroke-miterlimit:4;stroke-dasharray:none;stroke-opacity:1"
       d="m 436.81431,-32.759983 c -7.49331,-0.243275 -14.10102,9.525974 -8.5829,15.695205 3.30555,5.405463 11.18353,6.660352 15.71511,2.065682 5.78636,-4.009125 4.55187,-13.231768 -1.56102,-16.257751 -1.67281,-0.997937 -3.62121,-1.538568 -5.57119,-1.503136 z"
       id="path3363-5"
       inkscape:connector-curvature="0" />
  </g>
</svg>
